<svg width="405" height="68" viewBox="0 0 405 68" fill="none" xmlns="http://www.w3.org/2000/svg">
<path d="M0 13.0142C0 13.5836 0.876039 13.7588 1.27026 13.7588C2.84713 13.7588 6.7893 12.4448 8.40998 11.963C16.6009 9.55386 25.0109 7.71417 33.4209 6.26871C36.1804 5.78689 38.9837 5.08606 41.7871 4.91085C40.9986 6.1811 40.0788 7.36376 39.1152 8.54641C34.9102 13.5398 30.8804 18.6209 26.982 23.8333C22.6018 29.6152 0.919841 59.5757 0.919841 65.9708C0.919841 66.6278 1.13885 67.8105 2.05869 67.8105C4.99342 67.8105 15.8125 50.9029 17.3894 48.1872C17.3018 47.9244 16.82 47.1797 16.4695 47.1797C15.5059 47.1797 5.60665 62.5542 4.3802 62.7732C4.5116 61.6344 10.0306 52.217 10.9067 50.7277C15.2869 43.4128 20.4555 36.4483 25.6241 29.659C26.325 28.7829 32.5011 20.3291 33.1581 20.3291C33.4209 20.3291 33.6837 20.9862 34.2531 20.9862C35.2168 20.9862 36.3118 18.9713 36.7498 18.2704C39.9036 13.4522 43.5392 8.85302 46.9995 4.21002C58.2128 2.93976 69.5137 2.01992 80.8146 2.01992C81.6907 2.01992 87.1659 1.93231 87.5163 2.58934C87.1221 2.76455 86.9907 3.24637 86.9907 3.64059C86.9907 3.68439 87.1221 4.16621 87.1659 4.21002C87.3411 4.47283 87.6039 4.60423 87.9105 4.60423C88.918 4.60423 90.1006 3.20257 90.1006 2.23893C90.1006 -0.213982 82.3477 0.00502777 80.8146 0.00502777C71.879 0.00502777 63.0748 0.618255 54.1392 1.27528C48.7954 1.7133 43.4953 2.32653 38.1953 3.20257C34.6036 3.772 30.8366 4.73564 27.201 4.73564C24.6167 4.73564 22.0324 5.21746 19.5357 5.74308C17.1266 6.26871 0 10.6051 0 13.0142Z" fill="#222426"/>
<path d="M64.1262 4.42908C61.4542 4.42908 32.5887 43.588 32.5887 48.231C32.5887 48.6691 32.8954 49.1509 33.3772 49.1509C34.4722 49.1509 45.1599 38.4194 48.3575 38.4194C48.7955 38.4194 48.7955 38.9888 48.7955 39.2516C48.7955 40.3029 48.5765 41.3103 48.5765 42.3616C48.5765 45.0335 49.8467 46.3476 52.5624 46.3476C56.198 46.3476 66.1411 39.3392 68.4626 36.4921C68.5502 36.4045 68.594 36.3169 68.594 36.2293C68.594 36.0979 68.4626 36.0103 68.3311 36.0103C67.9369 36.0103 59.0889 43.7632 53.2195 43.7632C51.4674 43.7632 50.898 42.7558 50.898 41.1351C50.898 39.8649 51.2484 38.6822 51.2484 37.4558C51.2484 36.1855 50.4599 35.5285 49.2773 35.5285C46.7368 35.5285 41.9186 39.7773 39.9913 41.4417C39.2904 42.0112 38.502 42.7996 37.7136 43.2376C38.8086 40.1277 53.3071 19.3655 55.4972 18.4019C56.3294 18.0515 56.2856 17.6573 56.636 16.9126C57.8625 14.3721 65.046 6.96959 65.046 5.21751C65.046 4.77949 64.5204 4.42908 64.1262 4.42908Z" fill="#222426"/>
<path fill-rule="evenodd" clip-rule="evenodd" d="M90.6702 36.5797C87.4726 40.6095 76.5659 46.698 71.3973 46.698C68.6816 46.698 65.5278 45.4277 65.5278 42.2302C65.5278 37.4995 72.1419 30.2722 76.9601 30.2722C78.0114 30.2722 79.1064 30.6664 79.1064 31.9367C79.1064 34.4772 73.7626 38.945 71.2659 38.945C70.6089 38.945 70.0394 38.4632 69.689 37.9376C69.6395 38.0212 69.589 38.1057 69.5381 38.1911C68.8687 39.3127 68.1121 40.5803 68.1121 41.9235C68.1121 43.7194 69.8642 44.8145 71.5287 44.8145C77.9487 44.8145 85.5639 39.1724 88.6621 36.8769C89.4534 36.2906 89.95 35.9227 90.0569 35.9227C90.2759 35.9227 90.7578 36.0103 90.7578 36.3169C90.7578 36.4483 90.714 36.5359 90.6702 36.5797ZM75.7337 33.1631C74.551 34.4334 73.4998 35.3532 71.8353 35.9227C71.9229 35.397 75.2081 33.4698 75.7337 33.1631Z" fill="#222426"/>
<path d="M114.893 13.0142C114.893 13.5836 115.769 13.7588 116.163 13.7588C117.74 13.7588 121.682 12.4448 123.303 11.963C131.494 9.55386 139.904 7.71417 148.314 6.26871C151.073 5.78689 153.876 5.08606 156.68 4.91085C155.891 6.1811 154.971 7.36376 154.008 8.54641C149.803 13.5398 145.773 18.6209 141.875 23.8333C137.495 29.6152 115.813 59.5757 115.813 65.9708C115.813 66.6278 116.032 67.8105 116.951 67.8105C119.886 67.8105 130.705 50.9029 132.282 48.1872C132.194 47.9244 131.713 47.1797 131.362 47.1797C130.399 47.1797 120.499 62.5542 119.273 62.7732C119.404 61.6344 124.923 52.217 125.799 50.7277C130.18 43.4128 135.348 36.4483 140.517 29.659C141.218 28.7829 147.394 20.3291 148.051 20.3291C148.314 20.3291 148.576 20.9862 149.146 20.9862C150.109 20.9862 151.205 18.9713 151.643 18.2704C154.796 13.4522 158.432 8.85302 161.892 4.21002C173.106 2.93976 184.406 2.01992 195.707 2.01992C196.583 2.01992 202.059 1.93231 202.409 2.58934C202.015 2.76455 201.883 3.24637 201.883 3.64059C201.883 3.68439 202.015 4.16621 202.059 4.21002C202.234 4.47283 202.497 4.60423 202.803 4.60423C203.811 4.60423 204.993 3.20257 204.993 2.23893C204.993 -0.213982 197.24 0.00502777 195.707 0.00502777C186.772 0.00502777 177.968 0.618255 169.032 1.27528C163.688 1.7133 158.388 2.32653 153.088 3.20257C149.496 3.772 145.729 4.73564 142.094 4.73564C139.509 4.73564 136.925 5.21746 134.428 5.74308C132.019 6.26871 114.893 10.6051 114.893 13.0142Z" fill="#222426"/>
<path fill-rule="evenodd" clip-rule="evenodd" d="M159.658 39.3391C159.658 42.1425 157.249 45.559 154.227 45.559C152.562 45.559 151.161 44.4202 151.161 42.7119C151.161 39.7334 155.366 33.3821 158.563 33.3821C159.177 33.3821 159.571 34.0829 159.571 34.6523C159.571 34.7785 159.561 34.9022 159.551 35.0234C159.519 35.4068 159.49 35.7649 159.79 36.0978C160.972 37.6309 165.177 38.1127 167.061 38.1127C169.873 38.1127 170.56 37.7377 172.368 36.75C172.701 36.5684 173.071 36.3661 173.5 36.1416C173.587 36.0978 173.675 36.054 173.763 36.054L173.982 36.1416C173.982 36.273 173.894 36.4044 173.763 36.492C171.397 38.4631 168.156 39.2953 165.09 39.2953C163.206 39.2953 161.279 39.0763 159.571 38.2441C159.658 38.5945 159.658 38.9449 159.658 39.3391ZM158.476 38.8573C158.476 38.5507 158.3 37.4995 157.906 37.4995C156.417 37.4995 154.052 40.697 154.052 42.0987C154.052 42.6681 154.402 43.1937 155.015 43.1937C157.293 43.1937 158.476 40.916 158.476 38.8573Z" fill="#222426"/>
<path d="M180.114 37.631C181.691 41.4417 184.888 42.8872 188.436 42.8872C193.649 42.8872 199.606 39.821 202.497 36.8863C203.154 36.1855 202.759 35.7475 202.497 36.0979C200.044 38.4632 194.306 41.9235 189.706 41.9235C186.64 41.9235 184.1 40.4343 183.311 36.0103C183.005 34.302 188.349 33.1194 190.407 33.1194C190.977 33.1194 191.24 32.3309 191.24 31.8929C191.24 31.2797 190.889 30.8416 190.232 30.8416C183.881 30.8416 176.96 39.602 173.938 41.6169C171.616 41.6169 186.64 19.8474 190.758 19.8474C191.021 19.8474 191.196 20.0664 191.502 20.0664C192.554 20.0664 196.89 13.8903 196.89 12.7076C196.89 12.1382 196.189 11.4374 195.62 11.4374C191.765 11.4374 163.557 43.2376 173.5 43.2376C174.551 43.2376 176.61 40.7847 180.114 37.631Z" fill="#222426"/>
<path fill-rule="evenodd" clip-rule="evenodd" d="M227.551 46.698C232.72 46.698 243.627 40.6095 246.824 36.5797C246.868 36.5359 246.912 36.4483 246.912 36.3169C246.912 36.0103 246.43 35.9227 246.211 35.9227C246.104 35.9227 245.608 36.2906 244.816 36.8768L244.816 36.8769C241.718 39.1724 234.103 44.8145 227.683 44.8145C226.018 44.8145 222.076 42.9748 225.843 37.9376C226.194 38.4632 226.763 38.945 227.42 38.945C229.917 38.945 235.261 34.4772 235.261 31.9367C235.261 30.6664 234.209 30.2722 233.114 30.2722C230.538 30.2722 227.571 32.7673 224.095 35.6904C219.178 39.8244 213.244 44.8145 205.957 44.8145C204.293 44.8145 202.54 43.7194 202.54 41.9235C202.54 40.5803 203.297 39.3127 203.966 38.1911C204.017 38.1057 204.068 38.0212 204.117 37.9376C204.468 38.4632 205.037 38.945 205.694 38.945C208.191 38.945 213.535 34.4772 213.535 31.9367C213.535 30.6664 212.44 30.2722 211.388 30.2722C206.57 30.2722 199.956 37.4995 199.956 42.2302C199.956 45.4277 203.11 46.698 205.826 46.698C211.52 46.698 217.521 42.3616 222.076 38.726C219.974 42.7558 222.908 46.698 227.551 46.698ZM231.888 33.1631C230.705 34.4334 229.654 35.3532 227.989 35.9227C228.064 35.4773 230.465 34.0255 231.49 33.4061C231.674 33.2945 231.814 33.21 231.888 33.1631ZM206.264 35.9227C207.928 35.3532 208.979 34.4334 210.162 33.1631C210.088 33.21 209.949 33.2945 209.764 33.4061C208.739 34.0255 206.338 35.4773 206.264 35.9227Z" fill="#222426"/>
<path d="M257.074 24.9721C257.293 24.7093 257.687 24.4903 258.038 24.4465C263.425 23.7457 268.2 23.0449 271.31 23.0449C275.953 23.0449 279.238 22.9573 282.216 25.2788C283.005 25.8482 283.268 26.111 284.319 26.111C285.239 26.111 286.334 25.6292 286.334 24.5341C286.334 21.6432 278.449 21.249 275.69 21.3366C270.171 21.468 264.783 22.6506 258.782 23.6143C258.432 23.6581 258.344 23.5267 258.563 23.2639C261.191 20.3291 263.382 18.0952 264.039 17.4382C265.177 16.387 272.536 10.2985 272.536 9.51005C272.536 8.50261 272.58 6.83813 271.091 6.83813C268.725 6.83813 259.877 16.8688 258.344 19.1903C257.293 20.811 256.067 22.3002 254.84 23.7895C254.621 24.0523 254.227 24.2275 253.92 24.2713C250.898 24.6655 247.7 24.8845 244.24 24.8845C239.772 24.8845 239.159 23.2201 237.801 23.2201C236.881 23.2201 236.137 23.6143 236.137 24.4465C236.137 25.235 237.451 26.0672 239.203 26.0672C243.714 26.0672 248.62 25.6292 253.263 25.0598C253.614 25.0159 253.701 25.1912 253.438 25.454C253.088 25.892 252.738 26.2862 252.431 26.7242C248.971 31.1482 236.925 45.9971 250.022 45.9971C255.41 45.9971 265.922 39.7772 268.331 36.2731C268.331 36.2293 268.287 36.0978 268.244 36.0978C266.579 37.5433 258.125 44.683 250.679 44.683C241.831 44.683 250.11 33.0755 257.074 24.9721Z" fill="#222426"/>
<path d="M304.38 24.9721C304.599 24.7093 304.993 24.4903 305.344 24.4465C310.731 23.7457 315.506 23.0449 318.616 23.0449C323.259 23.0449 326.544 22.9573 329.523 25.2788C330.311 25.8482 330.574 26.111 331.625 26.111C332.545 26.111 333.64 25.6292 333.64 24.5341C333.64 21.6432 325.756 21.249 322.996 21.3366C317.477 21.468 312.089 22.6506 306.088 23.6143C305.738 23.6581 305.65 23.5267 305.869 23.2639C308.498 20.3291 310.688 18.0952 311.345 17.4382C312.484 16.387 319.842 10.2985 319.842 9.51005C319.842 8.50261 319.886 6.83813 318.397 6.83813C316.032 6.83813 307.184 16.8688 305.65 19.1903C304.599 20.811 303.373 22.3002 302.146 23.7895C301.927 24.0523 301.533 24.2275 301.226 24.2713C298.204 24.6655 295.007 24.8845 291.546 24.8845C287.078 24.8845 286.465 23.2201 285.107 23.2201C284.188 23.2201 283.443 23.6143 283.443 24.4465C283.443 25.235 284.757 26.0672 286.509 26.0672C291.021 26.0672 295.926 25.6292 300.569 25.0598C300.92 25.0159 301.007 25.1912 300.745 25.454C300.394 25.892 300.044 26.2862 299.737 26.7242C296.277 31.1482 284.231 45.9971 297.328 45.9971C302.716 45.9971 313.228 39.7772 315.637 36.2731C315.637 36.2293 315.594 36.0978 315.55 36.0978C313.885 37.5433 305.431 44.683 297.985 44.683C289.137 44.683 297.416 33.0755 304.38 24.9721Z" fill="#222426"/>
<path fill-rule="evenodd" clip-rule="evenodd" d="M338.152 36.5797C334.954 40.6095 324.047 46.698 318.879 46.698C316.163 46.698 313.009 45.4277 313.009 42.2302C313.009 37.4995 319.623 30.2722 324.442 30.2722C325.493 30.2722 326.588 30.6664 326.588 31.9367C326.588 34.4772 321.244 38.945 318.747 38.945C318.09 38.945 317.521 38.4632 317.17 37.9376C317.121 38.0212 317.07 38.1057 317.02 38.1911C316.35 39.3127 315.594 40.5803 315.594 41.9235C315.594 43.7194 317.346 44.8145 319.01 44.8145C325.43 44.8145 333.045 39.1724 336.144 36.8769C336.935 36.2906 337.431 35.9227 337.538 35.9227C337.757 35.9227 338.239 36.0103 338.239 36.3169C338.239 36.4483 338.195 36.5359 338.152 36.5797ZM323.215 33.1631C322.032 34.4334 320.981 35.3532 319.317 35.9227C319.404 35.397 322.69 33.4698 323.215 33.1631Z" fill="#222426"/>
<path fill-rule="evenodd" clip-rule="evenodd" d="M354.49 41.5293C350.109 41.5293 347.569 38.8574 346.737 34.6962C346.441 34.9697 346.056 35.335 345.604 35.7642C342.508 38.7031 336.256 44.6392 333.771 44.6392C333.158 44.6392 332.72 44.0698 332.72 43.4566C332.72 39.5144 341.042 31.4548 344.941 31.4548C345.817 31.4548 346.518 32.0243 346.912 32.7251C347.394 32.2433 348.051 31.9367 348.708 31.9367C349.156 31.9367 349.377 32.7336 349.476 33.0912C349.483 33.1177 349.49 33.1419 349.496 33.1631C349.584 33.505 349.668 33.8535 349.752 34.2038C350.509 37.3542 351.301 40.6532 355.322 40.6532C359.658 40.6532 363.25 38.0251 365.878 36.0978L366.01 36.2292L365.966 36.4483C363.075 39.3392 358.607 41.5293 354.49 41.5293ZM337.188 40.1276C340.385 38.5508 342.532 36.8863 345.072 34.4334L344.809 34.1706C342.05 34.4334 338.896 38.1127 337.188 40.1276Z" fill="#222426"/>
<path d="M361.848 43.2375C361.848 43.6755 362.637 44.4202 363.075 44.4202C364.389 44.4202 366.842 39.4267 367.937 39.2515C368.243 39.4706 368.725 39.821 369.12 39.821C370.39 39.821 370.872 37.0614 371.178 36.1416C371.616 34.7837 372.142 34.2581 373.149 33.2945C373.806 32.6812 376.347 30.3597 377.135 30.3597C377.354 30.3597 377.398 30.5788 377.398 30.754C377.398 32.6374 374.639 37.2367 374.639 40.259C374.639 41.3102 375.077 42.0549 376.215 42.0549C378.318 42.0549 385.633 34.3895 387.473 34.3895C389.444 34.3895 387.954 42.5805 393.386 42.5805C396.408 42.5805 402.234 38.5507 404.336 36.4482C404.38 36.4044 404.468 36.3168 404.468 36.1854C404.468 36.054 404.336 35.9664 404.205 35.9664C403.898 35.9664 398.379 40.9598 393.78 40.9598C389.75 40.9598 392.422 31.3672 388.48 31.3672C385.545 31.3672 378.449 40.2152 377.398 40.2152C377.179 40.2152 377.135 40.04 377.135 39.8648C377.135 37.9375 380.42 32.5936 380.42 29.3523C380.42 28.3449 380.026 27.6002 378.931 27.6002C376.785 27.6002 374.244 30.6226 373.5 30.6226C372.974 30.6226 372.755 29.1771 371.835 29.1771C370.346 29.1771 361.848 41.3978 361.848 43.2375Z" fill="#222426"/>
</svg>
